IKResults
version=1
nRows=4
nColumns=67
inDegrees=yes

Units are S.I. units (second, meters, Newtons, ...)
Angles are in degrees.

endheader
time	pelvis_tilt	pelvis_list	pelvis_rotation	pelvis_tx	pelvis_ty	pelvis_tz	hip_flexion_r	hip_adduction_r	hip_rotation_r	knee_angle_r	knee_rot_r	knee_adduc_r	ankle_angle_r	ankle_rot_r	ankle_add_r	subtalar_angle_r	mtp_angle_r	mtp_rot_r	mtp_add_r	hip_flexion_l	hip_adduction_l	hip_rotation_l	knee_angle_l	knee_rot_l	knee_adduc_l	ankle_angle_l	ankle_rot_l	ankle_add_l	subtalar_angle_l	mtp_angle_l	mtp_rot_l	mtp_add_l	lumbar_extension	lumbar_bending	lumbar_rotation	neck_flexion	neck_lateral_bending	neck_rotation	arm_flex_r	arm_add_r	arm_rot_r	elbow_flex_r	elbow_rot_r	elbow_add_r	pro_sup_r	wrist_flex_r	wrist_adduc_r	wrist_rot_r	wrist_dev_r	hand_finger_flex_r	hand_finger_adduc_r	hand_finger_rot_r	arm_flex_l	arm_add_l	arm_rot_l	elbow_flex_l	elbow_rot_l	elbow_add_l	pro_sup_l	wrist_flex_l	wrist_adduc_l	wrist_rot_l	wrist_dev_l	hand_finger_flex_l	hand_finger_adduc_l	hand_finger_rot_l
      3.00000000	     13.99387029	      3.83393179	      7.70078980	      0.47784894	      0.75942769	      0.56610060	    -13.07751068	      2.67826557	      4.26684977	    -11.72068685	     -5.00000000	     -1.94786218	      8.22009198	     -2.09474489	      4.98715673	     -9.98330857	     11.69165757	     -2.00000000	     -1.66682595	     11.54536636	      2.40906302	      4.65938586	    -60.04658089	      5.00000000	     -5.00000000	      3.25016165	      4.45897870	      4.83706358	      9.03675787	     33.90991935	      2.00000000	     -1.70189310	    -28.91517353	     -1.14695863	     -2.93821384	      0.00000000	      0.00000000	      0.00000000	      0.00000000	      0.00000000	      0.00000000	      0.00000000	      0.00000000	      0.00000000	     -0.00042092	      0.00000000	      0.00000000	      0.00000000	      0.00000000	      0.00000000	      0.00000000	      0.00000000	      0.00000000	      0.00000000	      0.00000000	      0.00000000	      0.00000000	      0.00000000	      0.00000000	      0.00000000	      0.00000000	      0.00000000	      0.00000000	      0.00000000	      0.00000000	      0.00000000
      3.00500000	     13.95731581	      3.79752479	      7.70836604	      0.48209757	      0.75932966	      0.56607513	    -13.47177317	      2.73650101	      4.26329914	    -11.62184890	     -5.00000000	     -1.90245487	      8.27448774	     -2.07515296	      4.99604402	     -9.97165878	     11.69026955	     -2.00000000	     -1.66655995	     12.30032141	      2.38098632	      4.67245446	    -59.08065583	      5.00000000	     -4.98074812	      3.31141817	      4.47270435	      4.81004277	      9.04338260	     33.90312948	      2.00000000	     -1.69948646	    -29.16949327	     -1.12850082	     -2.88828998	      0.00000000	      0.00000000	      0.00000000	      0.00000000	      0.00000000	      0.00000000	      0.00000000	      0.00000000	      0.00000000	     -0.00042092	      0.00000000	      0.00000000	      0.00000000	      0.00000000	      0.00000000	      0.00000000	      0.00000000	      0.00000000	      0.00000000	      0.00000000	      0.00000000	      0.00000000	      0.00000000	      0.00000000	      0.00000000	      0.00000000	      0.00000000	      0.00000000	      0.00000000	      0.00000000	      0.00000000
      3.01000000	     14.36319613	      4.33462792	      7.72637076	      0.48777284	      0.75993293	      0.56550591	    -15.20423801	      2.19565173	      3.33981528	    -10.24409924	     -5.00000000	     -1.99538495	      8.70062387	     -1.42756745	      4.81305906	     -9.62718897	     11.47559274	     -2.00000000	     -1.68855052	     12.08424008	      3.13013242	      4.70374896	    -57.56662312	      5.00000000	     -4.70462370	      3.28857525	      5.00000000	      4.41602837	      9.12292925	     33.43899310	      2.00000000	     -1.54710889	    -29.55995746	     -1.63969063	     -2.90412750	      0.00000000	      0.00000000	      0.00000000	      0.00000000	      0.00000000	      0.00000000	      0.00000000	      0.00000000	      0.00000000	     -0.00042092	      0.00000000	      0.00000000	      0.00000000	      0.00000000	      0.00000000	      0.00000000	      0.00000000	      0.00000000	      0.00000000	      0.00000000	      0.00000000	      0.00000000	      0.00000000	      0.00000000	      0.00000000	      0.00000000	      0.00000000	      0.00000000	      0.00000000	      0.00000000	      0.00000000
      3.01500000	     14.20889482	      4.31345350	      7.69810453	      0.49262312	      0.75969053	      0.56529559	    -15.72414359	      2.19539197	      3.37714814	     -9.75098721	     -5.00000000	     -1.95928008	      8.81500352	     -1.41917385	      4.81710310	     -9.62895829	     11.46642655	     -2.00000000	     -1.68873657	     12.75400104	      3.20287804	      4.80331878	    -56.32483032	      5.00000000	     -4.64840850	      3.41511496	      5.00000000	      4.38725756	      9.07899013	     33.41585844	      2.00000000	     -1.53977325	    -29.47143178	     -1.63904384	     -2.75940904	      0.00000000	      0.00000000	      0.00000000	      0.00000000	      0.00000000	      0.00000000	      0.00000000	      0.00000000	      0.00000000	     -0.00042092	      0.00000000	      0.00000000	      0.00000000	      0.00000000	      0.00000000	      0.00000000	      0.00000000	      0.00000000	      0.00000000	      0.00000000	      0.00000000	      0.00000000	      0.00000000	      0.00000000	      0.00000000	      0.00000000	      0.00000000	      0.00000000	      0.00000000	      0.00000000	      0.00000000
